<?xml version="1.0" standalone="no"?>
<!DOCTYPE svg PUBLIC "-//W3C//DTD SVG 20010904//EN"
 "http://www.w3.org/TR/2001/REC-SVG-20010904/DTD/svg10.dtd">
<svg version="1.0" xmlns="http://www.w3.org/2000/svg"
 width="300.000000pt" height="314.000000pt" viewBox="0 0 300.000000 314.000000"
 preserveAspectRatio="xMidYMid meet">
<metadata>
Created by potrace 1.10, written by Peter Selinger 2001-2011
</metadata>
<g transform="translate(0.000000,314.000000) scale(0.100000,-0.100000)"
fill="#000000" stroke="none">
<path d="M0 1570 l0 -1570 1500 0 1500 0 0 1570 0 1570 -1500 0 -1500 0 0
-1570z m2034 1453 c-37 -106 17 -216 126 -256 25 -9 72 -26 104 -38 75 -28
159 -106 175 -164 21 -75 7 -151 -32 -184 -10 -7 -17 -18 -17 -24 0 -19 43 28
61 68 50 109 -9 247 -134 311 -17 10 -65 27 -105 40 -122 37 -172 93 -172 191
0 78 16 83 23 8 3 -44 12 -76 24 -94 25 -32 87 -69 133 -77 49 -9 128 -48 173
-84 46 -39 85 -105 102 -173 l13 -52 1 51 c1 43 -5 60 -37 110 -20 32 -43 72
-50 87 -16 37 -15 129 2 152 20 28 46 12 46 -27 0 -40 29 -105 74 -167 62 -85
71 -153 32 -236 -12 -28 -39 -67 -58 -88 -29 -30 -33 -39 -22 -48 19 -16 17
-59 -3 -81 -13 -15 -32 -18 -111 -18 -91 0 -96 -1 -129 -30 -26 -23 -43 -30
-75 -30 l-42 0 27 -28 c15 -15 27 -38 27 -50 0 -36 -46 -146 -89 -215 -45 -71
-165 -191 -203 -202 -13 -4 -30 -14 -39 -22 -9 -8 -38 -22 -64 -32 l-47 -18
-1 -184 c-2 -166 -4 -188 -23 -227 l-22 -42 49 -35 c61 -46 112 -107 183 -221
32 -52 83 -116 117 -148 34 -32 62 -56 64 -54 1 2 10 20 20 40 22 49 79 98
111 98 17 0 38 -13 61 -37 34 -38 35 -39 31 -114 -6 -99 -63 -224 -133 -288
-42 -39 -51 -43 -90 -39 -39 3 -43 1 -53 -25 -12 -32 -117 -86 -137 -71 -7 5
-31 22 -54 37 -24 16 -50 41 -59 58 -10 16 -25 29 -34 29 -24 0 -48 39 -48 77
0 49 -36 136 -84 200 -44 60 -271 288 -286 288 -4 0 -36 -36 -70 -80 -105
-135 -213 -235 -286 -267 -16 -7 -49 -30 -75 -53 -25 -22 -54 -45 -64 -51 -18
-10 -16 -13 22 -38 75 -50 90 -94 52 -156 -27 -44 -36 -50 -79 -50 -46 0 -102
27 -168 79 -66 53 -92 94 -92 147 0 28 -5 44 -15 47 -8 4 -28 34 -46 68 l-31
62 33 64 c18 34 36 63 41 63 5 0 7 19 6 42 l-3 42 89 45 c65 33 112 67 173
124 80 76 100 107 68 107 -8 0 -19 9 -25 21 -10 17 -7 27 13 58 72 109 107
217 107 331 l0 72 -27 -6 c-54 -13 -172 -77 -219 -119 -47 -43 -47 -43 -34
-78 28 -78 -15 -132 -118 -148 -94 -14 -98 -13 -142 35 -33 36 -40 51 -40 84
0 47 11 73 49 113 14 15 26 41 27 57 3 61 118 176 234 235 67 34 158 62 247
75 43 7 83 15 88 20 6 4 22 10 36 14 25 5 26 7 15 39 -6 18 -24 48 -39 66 -37
44 -43 73 -21 110 14 24 15 35 7 54 -10 21 -20 25 -72 29 -96 7 -173 72 -203
170 -30 101 48 216 175 259 45 15 52 21 49 41 -4 34 76 113 144 145 107 49
245 24 319 -58 25 -28 43 -39 63 -39 15 0 52 -12 81 -26 68 -34 103 -85 109
-160 4 -46 1 -60 -22 -94 -15 -23 -42 -48 -61 -57 -19 -9 -35 -23 -35 -31 0
-27 64 -168 93 -203 33 -43 45 -105 26 -140 -7 -13 -14 -41 -15 -62 l-2 -38
26 17 c15 10 43 28 62 41 34 21 100 120 114 170 4 11 18 28 31 37 14 9 25 25
25 36 0 19 -7 20 -95 20 -84 0 -96 2 -115 22 -11 12 -20 28 -20 37 0 21 30 51
52 51 14 0 18 8 18 38 1 77 71 181 152 223 23 12 35 24 32 32 -3 8 2 20 11 27
22 19 19 24 -25 44 -38 16 -90 76 -90 102 0 6 6 17 14 23 11 9 20 6 44 -14 29
-24 69 -44 122 -60 22 -7 21 -3 -16 37 -23 25 -47 62 -54 82 -16 51 -8 140 15
166 24 27 25 26 9 -17z"/>
<path d="M2434 2865 c-9 -50 2 -92 39 -153 60 -99 67 -117 67 -161 0 -53 -26
-112 -77 -171 -25 -28 -30 -39 -16 -32 60 32 122 139 123 210 0 48 -14 81 -74
165 -37 53 -41 64 -41 118 0 65 -11 78 -21 24z"/>
<path d="M1920 2812 c0 -20 42 -61 83 -81 47 -23 189 -43 220 -32 14 5 0 10
-47 14 -107 10 -184 36 -222 74 -19 19 -34 30 -34 25z"/>
<path d="M1174 2786 c-50 -23 -134 -90 -134 -106 0 -4 15 -11 34 -14 33 -6
136 -73 136 -89 0 -4 -19 2 -42 14 -82 42 -215 21 -287 -44 -30 -28 -61 -94
-61 -132 0 -98 100 -185 211 -185 32 0 46 7 83 44 47 48 119 89 195 112 67 20
96 16 34 -5 -74 -25 -158 -79 -209 -133 l-45 -48 21 -39 c25 -49 25 -50 0 -44
-14 4 -21 -1 -26 -22 -9 -36 24 -80 60 -80 14 1 26 -3 26 -7 0 -4 -7 -8 -15
-8 -27 0 -16 -40 23 -81 53 -56 128 -80 272 -88 l115 -6 -48 -14 c-63 -18
-147 -9 -221 24 -32 14 -61 24 -64 21 -8 -9 120 -66 147 -66 13 0 22 -3 18 -6
-14 -14 -91 11 -159 52 -74 44 -125 55 -158 34 -11 -7 -5 -10 23 -10 27 0 58
-12 105 -40 68 -41 146 -70 189 -70 53 0 116 24 151 57 20 19 49 41 63 49 28
14 99 91 99 107 0 5 -7 4 -15 -3 -20 -17 -48 -5 -68 30 -10 16 -24 30 -30 30
-7 0 -31 -22 -53 -48 -48 -56 -90 -72 -183 -72 -55 0 -66 3 -91 29 -27 26 -48
76 -38 86 2 3 20 0 39 -5 60 -17 92 -12 143 25 48 34 50 35 148 33 86 -2 101
-4 110 -21 6 -12 17 -17 30 -14 14 4 18 2 14 -10 -3 -8 -6 -17 -6 -19 0 -11
-31 -1 -56 18 l-29 23 16 -25 c17 -26 54 -36 78 -21 12 8 13 18 2 64 -13 58
-44 96 -96 116 l-30 11 33 -5 32 -5 -19 38 c-10 20 -27 63 -37 94 -17 55 -20
59 -68 78 -50 20 -50 20 -11 13 70 -12 102 -8 139 20 41 32 58 80 46 132 -16
71 -69 118 -147 131 l-40 6 -12 -46 c-6 -26 -25 -60 -42 -79 l-31 -32 21 37
c12 20 24 60 28 88 6 49 5 52 -34 88 -69 66 -185 82 -279 38z"/>
<path d="M2247 2685 c-4 -8 -27 -17 -57 -21 -58 -8 -58 -14 -3 -21 88 -12 176
-72 216 -148 l16 -30 1 38 c0 66 -42 129 -120 176 -42 25 -46 25 -53 6z"/>
<path d="M2095 2663 c-52 -9 -65 -14 -65 -23 0 -6 7 -10 15 -10 31 0 14 -27
-24 -39 -22 -6 -62 -32 -89 -56 -61 -55 -87 -114 -80 -180 l6 -45 -40 0 c-35
0 -39 -3 -36 -21 3 -21 8 -21 120 -20 l118 2 -6 -33 c-3 -18 -7 -41 -9 -50 -2
-12 7 -19 29 -25 29 -7 27 -8 -23 -13 -53 -5 -54 -6 -68 -45 -7 -22 -27 -57
-44 -78 -17 -21 -29 -40 -27 -42 2 -2 27 7 56 20 29 14 50 20 46 13 -4 -6 -36
-24 -73 -40 -82 -37 -181 -99 -181 -114 0 -6 18 -16 39 -23 42 -12 131 -92
131 -117 0 -27 21 -14 99 64 80 79 124 149 162 261 11 30 19 55 19 57 0 1 -16
12 -36 24 -30 19 -34 26 -29 50 4 20 2 29 -11 34 -9 4 -15 9 -12 11 3 3 22 -2
43 -11 50 -20 94 -12 130 26 28 30 30 30 133 30 93 0 103 2 100 18 -3 16 -27
17 -293 22 l-290 5 223 40 223 40 -6 25 c-16 67 -119 159 -180 160 -11 0 -27
5 -35 11 -25 17 69 -1 123 -23 56 -24 88 -60 113 -123 19 -51 39 -48 24 4 -14
49 -49 96 -93 125 -45 28 -137 51 -173 42 -26 -7 -33 11 -12 32 15 15 9 19
-17 15z"/>
<path d="M2355 2370 c-3 -5 -15 -10 -25 -10 -10 0 -22 -4 -25 -10 -4 -6 10
-10 34 -10 34 0 41 3 41 20 0 21 -15 27 -25 10z"/>
<path d="M1470 2033 c-8 -4 -33 -19 -55 -35 -31 -23 -49 -29 -85 -28 -65 2
-67 1 -41 -20 26 -22 102 -27 160 -10 37 10 101 66 101 87 0 13 -51 17 -80 6z"/>
<path d="M1680 1890 c0 -18 -3 -21 -9 -12 -7 11 -9 11 -14 0 -3 -8 3 -20 14
-26 16 -10 19 -8 25 14 4 14 2 30 -5 37 -8 8 -11 5 -11 -13z"/>
<path d="M1207 1869 c7 -7 15 -10 18 -7 3 3 -2 9 -12 12 -14 6 -15 5 -6 -5z"/>
<path d="M1005 1844 c-82 -13 -197 -49 -267 -86 -79 -41 -171 -121 -197 -171
-13 -25 -13 -29 10 -53 13 -14 17 -23 9 -19 -24 9 -88 -51 -101 -94 -9 -31 -8
-43 4 -67 l16 -29 1 27 c0 15 4 29 8 32 4 2 6 -10 4 -27 -3 -23 2 -38 16 -51
18 -16 28 -17 87 -7 88 13 115 31 115 77 0 24 -8 43 -26 60 -25 26 -26 26 -47
8 l-21 -19 16 25 c10 17 23 24 37 22 15 -2 39 13 77 47 113 104 301 167 429
146 l50 -9 -81 -6 c-45 -4 -86 -10 -93 -14 -6 -4 -11 -36 -11 -79 0 -123 -45
-259 -117 -354 l-24 -33 27 0 c36 0 254 -52 254 -60 0 -4 -43 2 -96 13 l-97
21 -24 -30 c-94 -113 -231 -224 -306 -246 -21 -6 -41 -17 -43 -23 -7 -17 24
-102 52 -147 13 -21 21 -38 18 -38 -10 0 -31 29 -55 73 -11 21 -24 35 -28 33
-5 -3 -20 -29 -35 -59 l-27 -53 24 -51 c18 -39 27 -49 38 -42 25 16 28 10 28
-55 -1 -35 4 -73 10 -84 27 -50 172 -142 224 -142 26 0 57 23 57 41 0 20 -30
68 -56 88 -15 12 -23 21 -18 21 15 -1 54 -34 74 -65 15 -23 20 -26 20 -12 0
19 -31 53 -90 97 -28 22 -32 30 -26 53 5 20 13 27 30 27 43 0 188 170 221 259
10 25 14 30 14 15 1 -29 -44 -112 -82 -151 -53 -56 -25 -44 65 28 61 48 117
106 183 189 53 66 99 120 103 120 18 0 282 -272 319 -328 51 -76 83 -159 83
-212 0 -41 8 -47 39 -30 16 8 20 5 25 -22 13 -68 59 -85 131 -48 21 11 40 18
42 16 5 -5 -38 -32 -64 -40 -25 -8 -27 -14 -14 -34 7 -11 18 -10 59 8 57 25
79 44 62 55 -5 3 -10 15 -10 27 0 15 4 18 17 14 9 -4 36 -10 59 -13 37 -5 45
-2 81 31 73 66 143 235 128 312 -5 28 -10 34 -31 34 -43 0 -83 -28 -108 -78
-14 -26 -25 -41 -26 -34 0 20 38 89 62 112 12 11 35 20 50 20 17 0 27 4 23 10
-3 5 -18 10 -32 10 -33 0 -98 -67 -108 -110 -7 -30 -30 -51 -50 -44 -5 2 -34
-21 -64 -51 -30 -30 -59 -55 -65 -55 -6 0 21 32 59 71 48 49 66 73 56 76 -36
14 -101 89 -177 204 -80 122 -147 194 -208 226 -23 12 -39 13 -90 4 -88 -15
-91 -13 -16 12 64 22 65 22 79 72 10 34 15 106 15 227 1 119 4 169 10 150 12
-38 12 -309 -1 -359 -6 -24 -7 -43 -3 -43 18 0 34 112 33 235 -1 179 -29 345
-58 345 -12 0 -15 -17 -15 -83 0 -45 4 -97 9 -115 5 -17 6 -32 2 -32 -4 0 -26
14 -49 31 -49 36 -96 101 -110 150 -6 22 -14 33 -23 30 -90 -25 -188 -4 -284
62 -61 42 -111 52 -190 41z m475 -344 c-18 -4 -25 -13 -25 -30 0 -17 7 -26 25
-31 l25 -7 -27 -1 c-34 -1 -54 29 -38 58 12 23 29 30 50 22 11 -3 8 -7 -10
-11z m148 -1 c-10 -5 -18 -19 -18 -31 0 -18 4 -20 31 -14 27 5 30 4 19 -9 -15
-18 -42 -19 -58 -3 -24 24 -6 68 28 68 12 -1 12 -2 -2 -11z m-1003 -150 c-5
-14 -2 -25 6 -30 11 -7 11 -9 1 -9 -16 0 -26 25 -18 45 9 23 18 18 11 -6z
m-61 -39 c10 -13 9 -13 -6 -1 -10 7 -17 23 -17 35 1 20 2 20 6 1 3 -11 10 -27
17 -35z m1056 15 c-7 -8 -10 -22 -6 -30 6 -17 42 -20 49 -5 3 6 4 5 3 -2 -1
-6 -10 -16 -19 -22 -13 -8 -21 -6 -38 10 -17 18 -19 25 -10 43 7 11 17 21 23
21 7 0 6 -5 -2 -15z m-115 -5 c4 -7 -2 -9 -17 -5 -28 7 -52 -14 -42 -38 3 -9
15 -18 27 -21 14 -2 10 -4 -8 -3 -23 2 -31 7 -33 25 -2 13 -1 30 2 38 6 16 62
19 71 4z"/>
<path d="M1633 1839 c9 -5 17 -14 17 -20 0 -5 -10 -3 -23 6 -32 21 -41 7 -14
-21 27 -29 54 -31 62 -4 8 26 -11 50 -39 50 -19 -1 -19 -2 -3 -11z"/>
<path d="M1702 1815 c3 -14 2 -25 -2 -25 -4 0 1 -27 11 -61 10 -33 19 -69 19
-79 0 -18 3 -18 39 -5 22 7 52 20 68 29 l28 15 -25 1 c-41 1 -109 37 -122 65
-6 14 -9 28 -6 31 9 8 72 -21 88 -42 13 -17 13 -18 0 -7 -23 18 -70 34 -70 24
0 -21 143 -81 158 -66 2 2 -10 24 -27 48 -20 30 -48 54 -83 71 -66 33 -82 33
-76 1z"/>
<path d="M1585 1790 c-4 -6 -11 -24 -16 -38 -8 -26 -9 -26 -6 6 4 33 -9 42
-31 20 -32 -32 5 -125 75 -190 l29 -28 -4 103 c-3 81 -8 106 -22 121 -13 13
-20 15 -25 6z"/>
</g>
</svg>
